<svg xmlns="http://www.w3.org/2000/svg" xmlns:xlink="http://www.w3.org/1999/xlink" width="1366" zoomAndPan="magnify" viewBox="0 0 1024.5 576" height="768" preserveAspectRatio="xMidYMid meet" version="1.0"><defs><clipPath id="480545d4f8"><path d="M 0 0.140625 L 1024 0.140625 L 1024 575.859375 L 0 575.859375 Z M 0 0.140625 " clip-rule="nonzero"/></clipPath><radialGradient gradientTransform="matrix(1, 0, 0, 1, 0, 0.140508)" gradientUnits="userSpaceOnUse" r="1174.746348" cx="0" id="7900965259" cy="0" fx="0" fy="0"><stop stop-opacity="1" stop-color="rgb(36.427307%, 87.684631%, 90.155029%)" offset="0"/><stop stop-opacity="1" stop-color="rgb(36.2854%, 87.454224%, 90.068054%)" offset="0.00390625"/><stop stop-opacity="1" stop-color="rgb(36.141968%, 87.225342%, 89.979553%)" offset="0.0078125"/><stop stop-opacity="1" stop-color="rgb(36.000061%, 86.994934%, 89.892578%)" offset="0.0117188"/><stop stop-opacity="1" stop-color="rgb(35.856628%, 86.764526%, 89.805603%)" offset="0.015625"/><stop stop-opacity="1" stop-color="rgb(35.714722%, 86.535645%, 89.717102%)" offset="0.0195312"/><stop stop-opacity="1" stop-color="rgb(35.572815%, 86.305237%, 89.630127%)" offset="0.0234375"/><stop stop-opacity="1" stop-color="rgb(35.429382%, 86.076355%, 89.543152%)" offset="0.0273438"/><stop stop-opacity="1" stop-color="rgb(35.287476%, 85.845947%, 89.454651%)" offset="0.03125"/><stop stop-opacity="1" stop-color="rgb(35.144043%, 85.617065%, 89.367676%)" offset="0.0351562"/><stop stop-opacity="1" stop-color="rgb(35.002136%, 85.386658%, 89.280701%)" offset="0.0390625"/><stop stop-opacity="1" stop-color="rgb(34.858704%, 85.157776%, 89.1922%)" offset="0.0429688"/><stop stop-opacity="1" stop-color="rgb(34.716797%, 84.927368%, 89.105225%)" offset="0.046875"/><stop stop-opacity="1" stop-color="rgb(34.573364%, 84.698486%, 89.01825%)" offset="0.0507812"/><stop stop-opacity="1" stop-color="rgb(34.431458%, 84.468079%, 88.929749%)" offset="0.0546875"/><stop stop-opacity="1" stop-color="rgb(34.289551%, 84.239197%, 88.842773%)" offset="0.0585938"/><stop stop-opacity="1" stop-color="rgb(34.146118%, 84.008789%, 88.754272%)" offset="0.0625"/><stop stop-opacity="1" stop-color="rgb(34.004211%, 83.779907%, 88.667297%)" offset="0.0664062"/><stop stop-opacity="1" stop-color="rgb(33.860779%, 83.5495%, 88.580322%)" offset="0.0703125"/><stop stop-opacity="1" stop-color="rgb(33.718872%, 83.320618%, 88.491821%)" offset="0.0742188"/><stop stop-opacity="1" stop-color="rgb(33.575439%, 83.09021%, 88.404846%)" offset="0.078125"/><stop stop-opacity="1" stop-color="rgb(33.433533%, 82.859802%, 88.317871%)" offset="0.0820312"/><stop stop-opacity="1" stop-color="rgb(33.2901%, 82.63092%, 88.22937%)" offset="0.0859375"/><stop stop-opacity="1" stop-color="rgb(33.148193%, 82.400513%, 88.142395%)" offset="0.0898438"/><stop stop-opacity="1" stop-color="rgb(33.006287%, 82.171631%, 88.05542%)" offset="0.09375"/><stop stop-opacity="1" stop-color="rgb(32.862854%, 81.941223%, 87.966919%)" offset="0.0976562"/><stop stop-opacity="1" stop-color="rgb(32.720947%, 81.712341%, 87.879944%)" offset="0.101562"/><stop stop-opacity="1" stop-color="rgb(32.577515%, 81.481934%, 87.792969%)" offset="0.105469"/><stop stop-opacity="1" stop-color="rgb(32.435608%, 81.253052%, 87.704468%)" offset="0.109375"/><stop stop-opacity="1" stop-color="rgb(32.292175%, 81.022644%, 87.617493%)" offset="0.113281"/><stop stop-opacity="1" stop-color="rgb(32.150269%, 80.793762%, 87.530518%)" offset="0.117188"/><stop stop-opacity="1" stop-color="rgb(32.008362%, 80.563354%, 87.442017%)" offset="0.121094"/><stop stop-opacity="1" stop-color="rgb(31.864929%, 80.334473%, 87.355042%)" offset="0.125"/><stop stop-opacity="1" stop-color="rgb(31.723022%, 80.104065%, 87.268066%)" offset="0.128906"/><stop stop-opacity="1" stop-color="rgb(31.57959%, 79.875183%, 87.179565%)" offset="0.132812"/><stop stop-opacity="1" stop-color="rgb(31.437683%, 79.644775%, 87.09259%)" offset="0.136719"/><stop stop-opacity="1" stop-color="rgb(31.29425%, 79.415894%, 87.005615%)" offset="0.140625"/><stop stop-opacity="1" stop-color="rgb(31.152344%, 79.185486%, 86.917114%)" offset="0.144531"/><stop stop-opacity="1" stop-color="rgb(31.008911%, 78.956604%, 86.830139%)" offset="0.148438"/><stop stop-opacity="1" stop-color="rgb(30.867004%, 78.726196%, 86.743164%)" offset="0.152344"/><stop stop-opacity="1" stop-color="rgb(30.725098%, 78.495789%, 86.654663%)" offset="0.15625"/><stop stop-opacity="1" stop-color="rgb(30.581665%, 78.266907%, 86.567688%)" offset="0.160156"/><stop stop-opacity="1" stop-color="rgb(30.439758%, 78.036499%, 86.480713%)" offset="0.164062"/><stop stop-opacity="1" stop-color="rgb(30.296326%, 77.807617%, 86.392212%)" offset="0.167969"/><stop stop-opacity="1" stop-color="rgb(30.154419%, 77.577209%, 86.305237%)" offset="0.171875"/><stop stop-opacity="1" stop-color="rgb(30.010986%, 77.348328%, 86.216736%)" offset="0.175781"/><stop stop-opacity="1" stop-color="rgb(29.86908%, 77.11792%, 86.129761%)" offset="0.179688"/><stop stop-opacity="1" stop-color="rgb(29.725647%, 76.889038%, 86.042786%)" offset="0.183594"/><stop stop-opacity="1" stop-color="rgb(29.58374%, 76.65863%, 85.954285%)" offset="0.1875"/><stop stop-opacity="1" stop-color="rgb(29.441833%, 76.429749%, 85.86731%)" offset="0.191406"/><stop stop-opacity="1" stop-color="rgb(29.298401%, 76.199341%, 85.780334%)" offset="0.195312"/><stop stop-opacity="1" stop-color="rgb(29.156494%, 75.970459%, 85.691833%)" offset="0.199219"/><stop stop-opacity="1" stop-color="rgb(29.013062%, 75.740051%, 85.604858%)" offset="0.203125"/><stop stop-opacity="1" stop-color="rgb(28.871155%, 75.511169%, 85.517883%)" offset="0.207031"/><stop stop-opacity="1" stop-color="rgb(28.727722%, 75.280762%, 85.429382%)" offset="0.210938"/><stop stop-opacity="1" stop-color="rgb(28.585815%, 75.05188%, 85.342407%)" offset="0.214844"/><stop stop-opacity="1" stop-color="rgb(28.443909%, 74.821472%, 85.255432%)" offset="0.21875"/><stop stop-opacity="1" stop-color="rgb(28.300476%, 74.591064%, 85.166931%)" offset="0.222656"/><stop stop-opacity="1" stop-color="rgb(28.158569%, 74.362183%, 85.079956%)" offset="0.226562"/><stop stop-opacity="1" stop-color="rgb(28.015137%, 74.131775%, 84.992981%)" offset="0.230469"/><stop stop-opacity="1" stop-color="rgb(27.87323%, 73.902893%, 84.90448%)" offset="0.234375"/><stop stop-opacity="1" stop-color="rgb(27.729797%, 73.672485%, 84.817505%)" offset="0.238281"/><stop stop-opacity="1" stop-color="rgb(27.587891%, 73.443604%, 84.73053%)" offset="0.242188"/><stop stop-opacity="1" stop-color="rgb(27.444458%, 73.213196%, 84.642029%)" offset="0.246094"/><stop stop-opacity="1" stop-color="rgb(27.302551%, 72.984314%, 84.555054%)" offset="0.25"/><stop stop-opacity="1" stop-color="rgb(27.160645%, 72.753906%, 84.468079%)" offset="0.253906"/><stop stop-opacity="1" stop-color="rgb(27.017212%, 72.525024%, 84.379578%)" offset="0.257812"/><stop stop-opacity="1" stop-color="rgb(26.875305%, 72.294617%, 84.292603%)" offset="0.261719"/><stop stop-opacity="1" stop-color="rgb(26.731873%, 72.065735%, 84.205627%)" offset="0.265625"/><stop stop-opacity="1" stop-color="rgb(26.589966%, 71.835327%, 84.117126%)" offset="0.269531"/><stop stop-opacity="1" stop-color="rgb(26.446533%, 71.606445%, 84.030151%)" offset="0.273438"/><stop stop-opacity="1" stop-color="rgb(26.304626%, 71.376038%, 83.943176%)" offset="0.277344"/><stop stop-opacity="1" stop-color="rgb(26.161194%, 71.147156%, 83.854675%)" offset="0.28125"/><stop stop-opacity="1" stop-color="rgb(26.019287%, 70.916748%, 83.7677%)" offset="0.285156"/><stop stop-opacity="1" stop-color="rgb(25.87738%, 70.687866%, 83.680725%)" offset="0.289062"/><stop stop-opacity="1" stop-color="rgb(25.733948%, 70.457458%, 83.592224%)" offset="0.292969"/><stop stop-opacity="1" stop-color="rgb(25.592041%, 70.227051%, 83.505249%)" offset="0.296875"/><stop stop-opacity="1" stop-color="rgb(25.448608%, 69.998169%, 83.416748%)" offset="0.300781"/><stop stop-opacity="1" stop-color="rgb(25.306702%, 69.767761%, 83.329773%)" offset="0.304688"/><stop stop-opacity="1" stop-color="rgb(25.163269%, 69.538879%, 83.242798%)" offset="0.308594"/><stop stop-opacity="1" stop-color="rgb(25.021362%, 69.308472%, 83.154297%)" offset="0.3125"/><stop stop-opacity="1" stop-color="rgb(24.879456%, 69.07959%, 83.067322%)" offset="0.316406"/><stop stop-opacity="1" stop-color="rgb(24.736023%, 68.849182%, 82.980347%)" offset="0.320312"/><stop stop-opacity="1" stop-color="rgb(24.594116%, 68.6203%, 82.891846%)" offset="0.324219"/><stop stop-opacity="1" stop-color="rgb(24.450684%, 68.389893%, 82.804871%)" offset="0.328125"/><stop stop-opacity="1" stop-color="rgb(24.308777%, 68.161011%, 82.717896%)" offset="0.332031"/><stop stop-opacity="1" stop-color="rgb(24.165344%, 67.930603%, 82.629395%)" offset="0.335938"/><stop stop-opacity="1" stop-color="rgb(24.023438%, 67.701721%, 82.542419%)" offset="0.339844"/><stop stop-opacity="1" stop-color="rgb(23.880005%, 67.471313%, 82.455444%)" offset="0.34375"/><stop stop-opacity="1" stop-color="rgb(23.738098%, 67.242432%, 82.366943%)" offset="0.347656"/><stop stop-opacity="1" stop-color="rgb(23.596191%, 67.012024%, 82.279968%)" offset="0.351562"/><stop stop-opacity="1" stop-color="rgb(23.452759%, 66.783142%, 82.192993%)" offset="0.355469"/><stop stop-opacity="1" stop-color="rgb(23.310852%, 66.552734%, 82.104492%)" offset="0.359375"/><stop stop-opacity="1" stop-color="rgb(23.167419%, 66.322327%, 82.017517%)" offset="0.363281"/><stop stop-opacity="1" stop-color="rgb(23.025513%, 66.093445%, 81.930542%)" offset="0.367188"/><stop stop-opacity="1" stop-color="rgb(22.88208%, 65.863037%, 81.842041%)" offset="0.371094"/><stop stop-opacity="1" stop-color="rgb(22.740173%, 65.634155%, 81.755066%)" offset="0.375"/><stop stop-opacity="1" stop-color="rgb(22.596741%, 65.403748%, 81.668091%)" offset="0.378906"/><stop stop-opacity="1" stop-color="rgb(22.454834%, 65.174866%, 81.57959%)" offset="0.382812"/><stop stop-opacity="1" stop-color="rgb(22.312927%, 64.944458%, 81.492615%)" offset="0.386719"/><stop stop-opacity="1" stop-color="rgb(22.169495%, 64.715576%, 81.40564%)" offset="0.390625"/><stop stop-opacity="1" stop-color="rgb(22.027588%, 64.485168%, 81.317139%)" offset="0.394531"/><stop stop-opacity="1" stop-color="rgb(21.884155%, 64.256287%, 81.230164%)" offset="0.398438"/><stop stop-opacity="1" stop-color="rgb(21.742249%, 64.025879%, 81.143188%)" offset="0.402344"/><stop stop-opacity="1" stop-color="rgb(21.598816%, 63.796997%, 81.054688%)" offset="0.40625"/><stop stop-opacity="1" stop-color="rgb(21.456909%, 63.566589%, 80.967712%)" offset="0.410156"/><stop stop-opacity="1" stop-color="rgb(21.315002%, 63.337708%, 80.880737%)" offset="0.414062"/><stop stop-opacity="1" stop-color="rgb(21.17157%, 63.1073%, 80.792236%)" offset="0.417969"/><stop stop-opacity="1" stop-color="rgb(21.029663%, 62.878418%, 80.705261%)" offset="0.421875"/><stop stop-opacity="1" stop-color="rgb(20.88623%, 62.64801%, 80.61676%)" offset="0.425781"/><stop stop-opacity="1" stop-color="rgb(20.744324%, 62.419128%, 80.529785%)" offset="0.429688"/><stop stop-opacity="1" stop-color="rgb(20.600891%, 62.188721%, 80.44281%)" offset="0.433594"/><stop stop-opacity="1" stop-color="rgb(20.458984%, 61.958313%, 80.354309%)" offset="0.4375"/><stop stop-opacity="1" stop-color="rgb(20.315552%, 61.729431%, 80.267334%)" offset="0.441406"/><stop stop-opacity="1" stop-color="rgb(20.173645%, 61.499023%, 80.180359%)" offset="0.445312"/><stop stop-opacity="1" stop-color="rgb(20.031738%, 61.270142%, 80.091858%)" offset="0.449219"/><stop stop-opacity="1" stop-color="rgb(19.888306%, 61.039734%, 80.004883%)" offset="0.453125"/><stop stop-opacity="1" stop-color="rgb(19.746399%, 60.810852%, 79.917908%)" offset="0.457031"/><stop stop-opacity="1" stop-color="rgb(19.602966%, 60.580444%, 79.829407%)" offset="0.460938"/><stop stop-opacity="1" stop-color="rgb(19.46106%, 60.351562%, 79.742432%)" offset="0.464844"/><stop stop-opacity="1" stop-color="rgb(19.317627%, 60.121155%, 79.655457%)" offset="0.46875"/><stop stop-opacity="1" stop-color="rgb(19.17572%, 59.892273%, 79.566956%)" offset="0.472656"/><stop stop-opacity="1" stop-color="rgb(19.032288%, 59.661865%, 79.47998%)" offset="0.476562"/><stop stop-opacity="1" stop-color="rgb(18.890381%, 59.432983%, 79.393005%)" offset="0.480469"/><stop stop-opacity="1" stop-color="rgb(18.748474%, 59.202576%, 79.304504%)" offset="0.484375"/><stop stop-opacity="1" stop-color="rgb(18.605042%, 58.973694%, 79.217529%)" offset="0.488281"/><stop stop-opacity="1" stop-color="rgb(18.463135%, 58.743286%, 79.130554%)" offset="0.492188"/><stop stop-opacity="1" stop-color="rgb(18.319702%, 58.514404%, 79.042053%)" offset="0.496094"/><stop stop-opacity="1" stop-color="rgb(18.177795%, 58.283997%, 78.955078%)" offset="0.5"/><stop stop-opacity="1" stop-color="rgb(18.034363%, 58.053589%, 78.868103%)" offset="0.503906"/><stop stop-opacity="1" stop-color="rgb(17.892456%, 57.824707%, 78.779602%)" offset="0.507812"/><stop stop-opacity="1" stop-color="rgb(17.750549%, 57.594299%, 78.692627%)" offset="0.511719"/><stop stop-opacity="1" stop-color="rgb(17.607117%, 57.365417%, 78.605652%)" offset="0.515625"/><stop stop-opacity="1" stop-color="rgb(17.46521%, 57.13501%, 78.517151%)" offset="0.519531"/><stop stop-opacity="1" stop-color="rgb(17.321777%, 56.906128%, 78.430176%)" offset="0.523438"/><stop stop-opacity="1" stop-color="rgb(17.179871%, 56.67572%, 78.343201%)" offset="0.527344"/><stop stop-opacity="1" stop-color="rgb(17.036438%, 56.446838%, 78.2547%)" offset="0.53125"/><stop stop-opacity="1" stop-color="rgb(16.894531%, 56.216431%, 78.167725%)" offset="0.535156"/><stop stop-opacity="1" stop-color="rgb(16.751099%, 55.987549%, 78.08075%)" offset="0.539062"/><stop stop-opacity="1" stop-color="rgb(16.609192%, 55.757141%, 77.992249%)" offset="0.542969"/><stop stop-opacity="1" stop-color="rgb(16.467285%, 55.528259%, 77.905273%)" offset="0.546875"/><stop stop-opacity="1" stop-color="rgb(16.323853%, 55.297852%, 77.816772%)" offset="0.550781"/><stop stop-opacity="1" stop-color="rgb(16.181946%, 55.06897%, 77.729797%)" offset="0.554688"/><stop stop-opacity="1" stop-color="rgb(16.038513%, 54.838562%, 77.642822%)" offset="0.558594"/><stop stop-opacity="1" stop-color="rgb(15.896606%, 54.60968%, 77.554321%)" offset="0.5625"/><stop stop-opacity="1" stop-color="rgb(15.753174%, 54.379272%, 77.467346%)" offset="0.566406"/><stop stop-opacity="1" stop-color="rgb(15.611267%, 54.148865%, 77.380371%)" offset="0.570312"/><stop stop-opacity="1" stop-color="rgb(15.467834%, 53.919983%, 77.29187%)" offset="0.574219"/><stop stop-opacity="1" stop-color="rgb(15.325928%, 53.689575%, 77.204895%)" offset="0.578125"/><stop stop-opacity="1" stop-color="rgb(15.184021%, 53.460693%, 77.11792%)" offset="0.582031"/><stop stop-opacity="1" stop-color="rgb(15.040588%, 53.230286%, 77.029419%)" offset="0.585938"/><stop stop-opacity="1" stop-color="rgb(14.898682%, 53.001404%, 76.942444%)" offset="0.589844"/><stop stop-opacity="1" stop-color="rgb(14.755249%, 52.770996%, 76.855469%)" offset="0.59375"/><stop stop-opacity="1" stop-color="rgb(14.613342%, 52.542114%, 76.766968%)" offset="0.597656"/><stop stop-opacity="1" stop-color="rgb(14.46991%, 52.311707%, 76.679993%)" offset="0.601562"/><stop stop-opacity="1" stop-color="rgb(14.328003%, 52.082825%, 76.593018%)" offset="0.605469"/><stop stop-opacity="1" stop-color="rgb(14.186096%, 51.852417%, 76.504517%)" offset="0.609375"/><stop stop-opacity="1" stop-color="rgb(14.042664%, 51.623535%, 76.417542%)" offset="0.613281"/><stop stop-opacity="1" stop-color="rgb(13.900757%, 51.393127%, 76.330566%)" offset="0.617188"/><stop stop-opacity="1" stop-color="rgb(13.757324%, 51.164246%, 76.242065%)" offset="0.621094"/><stop stop-opacity="1" stop-color="rgb(13.615417%, 50.933838%, 76.15509%)" offset="0.625"/><stop stop-opacity="1" stop-color="rgb(13.471985%, 50.704956%, 76.068115%)" offset="0.628906"/><stop stop-opacity="1" stop-color="rgb(13.330078%, 50.474548%, 75.979614%)" offset="0.632812"/><stop stop-opacity="1" stop-color="rgb(13.186646%, 50.245667%, 75.892639%)" offset="0.636719"/><stop stop-opacity="1" stop-color="rgb(13.044739%, 50.015259%, 75.805664%)" offset="0.640625"/><stop stop-opacity="1" stop-color="rgb(12.902832%, 49.784851%, 75.717163%)" offset="0.644531"/><stop stop-opacity="1" stop-color="rgb(12.759399%, 49.555969%, 75.630188%)" offset="0.648438"/><stop stop-opacity="1" stop-color="rgb(12.617493%, 49.325562%, 75.543213%)" offset="0.652344"/><stop stop-opacity="1" stop-color="rgb(12.47406%, 49.09668%, 75.454712%)" offset="0.65625"/><stop stop-opacity="1" stop-color="rgb(12.332153%, 48.866272%, 75.367737%)" offset="0.660156"/><stop stop-opacity="1" stop-color="rgb(12.188721%, 48.63739%, 75.279236%)" offset="0.664062"/><stop stop-opacity="1" stop-color="rgb(12.046814%, 48.406982%, 75.192261%)" offset="0.667969"/><stop stop-opacity="1" stop-color="rgb(11.903381%, 48.178101%, 75.105286%)" offset="0.671875"/><stop stop-opacity="1" stop-color="rgb(11.761475%, 47.947693%, 75.016785%)" offset="0.675781"/><stop stop-opacity="1" stop-color="rgb(11.619568%, 47.718811%, 74.92981%)" offset="0.679688"/><stop stop-opacity="1" stop-color="rgb(11.476135%, 47.488403%, 74.842834%)" offset="0.683594"/><stop stop-opacity="1" stop-color="rgb(11.334229%, 47.259521%, 74.754333%)" offset="0.6875"/><stop stop-opacity="1" stop-color="rgb(11.190796%, 47.029114%, 74.667358%)" offset="0.691406"/><stop stop-opacity="1" stop-color="rgb(11.048889%, 46.800232%, 74.580383%)" offset="0.695312"/><stop stop-opacity="1" stop-color="rgb(10.905457%, 46.569824%, 74.491882%)" offset="0.699219"/><stop stop-opacity="1" stop-color="rgb(10.76355%, 46.340942%, 74.404907%)" offset="0.703125"/><stop stop-opacity="1" stop-color="rgb(10.621643%, 46.110535%, 74.317932%)" offset="0.707031"/><stop stop-opacity="1" stop-color="rgb(10.47821%, 45.880127%, 74.229431%)" offset="0.710938"/><stop stop-opacity="1" stop-color="rgb(10.336304%, 45.651245%, 74.142456%)" offset="0.714844"/><stop stop-opacity="1" stop-color="rgb(10.192871%, 45.420837%, 74.055481%)" offset="0.71875"/><stop stop-opacity="1" stop-color="rgb(10.050964%, 45.191956%, 73.96698%)" offset="0.722656"/><stop stop-opacity="1" stop-color="rgb(9.907532%, 44.961548%, 73.880005%)" offset="0.726562"/><stop stop-opacity="1" stop-color="rgb(9.765625%, 44.732666%, 73.79303%)" offset="0.730469"/><stop stop-opacity="1" stop-color="rgb(9.622192%, 44.502258%, 73.704529%)" offset="0.734375"/><stop stop-opacity="1" stop-color="rgb(9.480286%, 44.273376%, 73.617554%)" offset="0.738281"/><stop stop-opacity="1" stop-color="rgb(9.338379%, 44.042969%, 73.530579%)" offset="0.742188"/><stop stop-opacity="1" stop-color="rgb(9.194946%, 43.814087%, 73.442078%)" offset="0.746094"/><stop stop-opacity="1" stop-color="rgb(9.05304%, 43.583679%, 73.355103%)" offset="0.75"/><stop stop-opacity="1" stop-color="rgb(8.909607%, 43.354797%, 73.268127%)" offset="0.753906"/><stop stop-opacity="1" stop-color="rgb(8.7677%, 43.12439%, 73.179626%)" offset="0.757812"/><stop stop-opacity="1" stop-color="rgb(8.624268%, 42.895508%, 73.092651%)" offset="0.761719"/><stop stop-opacity="1" stop-color="rgb(8.482361%, 42.6651%, 73.005676%)" offset="0.765625"/><stop stop-opacity="1" stop-color="rgb(8.338928%, 42.436218%, 72.917175%)" offset="0.769531"/><stop stop-opacity="1" stop-color="rgb(8.197021%, 42.205811%, 72.8302%)" offset="0.773438"/><stop stop-opacity="1" stop-color="rgb(8.055115%, 41.976929%, 72.743225%)" offset="0.777344"/><stop stop-opacity="1" stop-color="rgb(7.911682%, 41.746521%, 72.654724%)" offset="0.78125"/><stop stop-opacity="1" stop-color="rgb(7.769775%, 41.516113%, 72.567749%)" offset="0.785156"/><stop stop-opacity="1" stop-color="rgb(7.626343%, 41.287231%, 72.479248%)" offset="0.789062"/><stop stop-opacity="1" stop-color="rgb(7.484436%, 41.056824%, 72.392273%)" offset="0.792969"/><stop stop-opacity="1" stop-color="rgb(7.341003%, 40.827942%, 72.305298%)" offset="0.796875"/><stop stop-opacity="1" stop-color="rgb(7.199097%, 40.597534%, 72.216797%)" offset="0.800781"/><stop stop-opacity="1" stop-color="rgb(7.05719%, 40.368652%, 72.129822%)" offset="0.804688"/><stop stop-opacity="1" stop-color="rgb(6.913757%, 40.138245%, 72.042847%)" offset="0.808594"/><stop stop-opacity="1" stop-color="rgb(6.771851%, 39.909363%, 71.954346%)" offset="0.8125"/><stop stop-opacity="1" stop-color="rgb(6.628418%, 39.678955%, 71.867371%)" offset="0.816406"/><stop stop-opacity="1" stop-color="rgb(6.486511%, 39.450073%, 71.780396%)" offset="0.820312"/><stop stop-opacity="1" stop-color="rgb(6.343079%, 39.219666%, 71.691895%)" offset="0.824219"/><stop stop-opacity="1" stop-color="rgb(6.201172%, 38.990784%, 71.604919%)" offset="0.828125"/><stop stop-opacity="1" stop-color="rgb(6.057739%, 38.760376%, 71.517944%)" offset="0.832031"/><stop stop-opacity="1" stop-color="rgb(5.915833%, 38.531494%, 71.429443%)" offset="0.835938"/><stop stop-opacity="1" stop-color="rgb(5.773926%, 38.301086%, 71.342468%)" offset="0.839844"/><stop stop-opacity="1" stop-color="rgb(5.630493%, 38.072205%, 71.255493%)" offset="0.84375"/><stop stop-opacity="1" stop-color="rgb(5.488586%, 37.841797%, 71.166992%)" offset="0.847656"/><stop stop-opacity="1" stop-color="rgb(5.345154%, 37.611389%, 71.080017%)" offset="0.851562"/><stop stop-opacity="1" stop-color="rgb(5.203247%, 37.382507%, 70.993042%)" offset="0.855469"/><stop stop-opacity="1" stop-color="rgb(5.059814%, 37.1521%, 70.904541%)" offset="0.859375"/><stop stop-opacity="1" stop-color="rgb(4.917908%, 36.923218%, 70.817566%)" offset="0.863281"/><stop stop-opacity="1" stop-color="rgb(4.774475%, 36.69281%, 70.730591%)" offset="0.867188"/><stop stop-opacity="1" stop-color="rgb(4.632568%, 36.463928%, 70.64209%)" offset="0.871094"/><stop stop-opacity="1" stop-color="rgb(4.490662%, 36.233521%, 70.555115%)" offset="0.875"/><stop stop-opacity="1" stop-color="rgb(4.347229%, 36.004639%, 70.46814%)" offset="0.878906"/><stop stop-opacity="1" stop-color="rgb(4.205322%, 35.774231%, 70.379639%)" offset="0.882812"/><stop stop-opacity="1" stop-color="rgb(4.06189%, 35.545349%, 70.292664%)" offset="0.886719"/><stop stop-opacity="1" stop-color="rgb(3.919983%, 35.314941%, 70.205688%)" offset="0.890625"/><stop stop-opacity="1" stop-color="rgb(3.77655%, 35.08606%, 70.117188%)" offset="0.894531"/><stop stop-opacity="1" stop-color="rgb(3.634644%, 34.855652%, 70.030212%)" offset="0.898438"/><stop stop-opacity="1" stop-color="rgb(3.492737%, 34.62677%, 69.943237%)" offset="0.902344"/><stop stop-opacity="1" stop-color="rgb(3.349304%, 34.396362%, 69.854736%)" offset="0.90625"/><stop stop-opacity="1" stop-color="rgb(3.207397%, 34.16748%, 69.767761%)" offset="0.910156"/><stop stop-opacity="1" stop-color="rgb(3.063965%, 33.937073%, 69.67926%)" offset="0.914062"/><stop stop-opacity="1" stop-color="rgb(2.922058%, 33.708191%, 69.592285%)" offset="0.917969"/><stop stop-opacity="1" stop-color="rgb(2.778625%, 33.477783%, 69.50531%)" offset="0.921875"/><stop stop-opacity="1" stop-color="rgb(2.636719%, 33.247375%, 69.416809%)" offset="0.925781"/><stop stop-opacity="1" stop-color="rgb(2.493286%, 33.018494%, 69.329834%)" offset="0.929688"/><stop stop-opacity="1" stop-color="rgb(2.351379%, 32.788086%, 69.242859%)" offset="0.933594"/><stop stop-opacity="1" stop-color="rgb(2.209473%, 32.559204%, 69.154358%)" offset="0.9375"/><stop stop-opacity="1" stop-color="rgb(2.06604%, 32.328796%, 69.067383%)" offset="0.941406"/><stop stop-opacity="1" stop-color="rgb(1.924133%, 32.099915%, 68.980408%)" offset="0.945312"/><stop stop-opacity="1" stop-color="rgb(1.780701%, 31.869507%, 68.891907%)" offset="0.949219"/><stop stop-opacity="1" stop-color="rgb(1.638794%, 31.640625%, 68.804932%)" offset="0.953125"/><stop stop-opacity="1" stop-color="rgb(1.495361%, 31.410217%, 68.717957%)" offset="0.957031"/><stop stop-opacity="1" stop-color="rgb(1.353455%, 31.181335%, 68.629456%)" offset="0.960938"/><stop stop-opacity="1" stop-color="rgb(1.210022%, 30.950928%, 68.54248%)" offset="0.964844"/><stop stop-opacity="1" stop-color="rgb(1.068115%, 30.722046%, 68.455505%)" offset="0.96875"/><stop stop-opacity="1" stop-color="rgb(0.926208%, 30.491638%, 68.367004%)" offset="0.972656"/><stop stop-opacity="1" stop-color="rgb(0.782776%, 30.262756%, 68.280029%)" offset="0.976562"/><stop stop-opacity="1" stop-color="rgb(0.640869%, 30.032349%, 68.193054%)" offset="0.980469"/><stop stop-opacity="1" stop-color="rgb(0.497437%, 29.803467%, 68.104553%)" offset="0.984375"/><stop stop-opacity="1" stop-color="rgb(0.35553%, 29.573059%, 68.017578%)" offset="0.988281"/><stop stop-opacity="1" stop-color="rgb(0.212097%, 29.342651%, 67.930603%)" offset="0.992188"/><stop stop-opacity="1" stop-color="rgb(0.0701904%, 29.11377%, 67.842102%)" offset="0.996094"/><stop stop-opacity="1" stop-color="rgb(0%, 28.999329%, 67.799377%)" offset="1"/></radialGradient><clipPath id="b8f38b5b96"><path d="M 12 333 L 299 333 L 299 575.859375 L 12 575.859375 Z M 12 333 " clip-rule="nonzero"/></clipPath><clipPath id="55b6e50b19"><path d="M 0 341 L 286 341 L 286 575.859375 L 0 575.859375 Z M 0 341 " clip-rule="nonzero"/></clipPath><clipPath id="1be502ae85"><path d="M 0 215.269531 L 275 215.269531 L 275 575.859375 L 0 575.859375 Z M 0 215.269531 " clip-rule="nonzero"/></clipPath><clipPath id="e938c0cfe2"><path d="M 0 215.269531 L 299 215.269531 L 299 575.859375 L 0 575.859375 Z M 0 215.269531 " clip-rule="nonzero"/></clipPath><clipPath id="baf84fa5e3"><path d="M 0 373 L 227 373 L 227 575.859375 L 0 575.859375 Z M 0 373 " clip-rule="nonzero"/></clipPath><clipPath id="352bb46942"><path d="M 738 0.234375 L 1023.636719 0.234375 L 1023.636719 245 L 738 245 Z M 738 0.234375 " clip-rule="nonzero"/></clipPath><clipPath id="b6d1069086"><path d="M 749 0.234375 L 1023.636719 0.234375 L 1023.636719 370.460938 L 749 370.460938 Z M 749 0.234375 " clip-rule="nonzero"/></clipPath><clipPath id="aae4ba972c"><path d="M 725 0.234375 L 1023.636719 0.234375 L 1023.636719 370.460938 L 725 370.460938 Z M 725 0.234375 " clip-rule="nonzero"/></clipPath><clipPath id="3abb1d86be"><path d="M 797 0.234375 L 1023.636719 0.234375 L 1023.636719 213 L 797 213 Z M 797 0.234375 " clip-rule="nonzero"/></clipPath></defs><g clip-path="url(#480545d4f8)"><path fill="#ffffff" d="M 0 0.140625 L 1024 0.140625 L 1024 575.859375 L 0 575.859375 Z M 0 0.140625 " fill-opacity="1" fill-rule="nonzero"/><path fill="url(#7900965259)" d="M 0 0.140625 L 0 575.859375 L 1024 575.859375 L 1024 0.140625 Z M 0 0.140625 " fill-rule="nonzero"/></g><g clip-path="url(#b8f38b5b96)"><path fill="#5271ff" d="M 294.03125 546.105469 C 294.03125 546.566406 294.03125 547.03125 293.570312 547.03125 C 289.871094 558.125 283.859375 568.296875 276.925781 578.003906 L 12.945312 578.003906 L 12.945312 375.046875 C 12.945312 375.046875 13.40625 375.046875 13.40625 374.585938 C 23.578125 368.113281 34.671875 362.105469 45.769531 357.019531 C 68.421875 346.847656 92 339.914062 116.503906 336.214844 C 119.738281 335.753906 122.976562 335.289062 125.75 334.828125 C 137.308594 333.441406 148.863281 332.976562 160.421875 335.289062 C 171.519531 338.0625 182.613281 344.074219 188.625 353.78125 C 197.40625 367.652344 195.097656 385.683594 190.472656 401.402344 C 185.851562 417.121094 178.914062 432.839844 178.914062 449.019531 C 178.914062 465.199219 188.625 483.691406 204.804688 486.003906 C 222.371094 488.777344 238.089844 472.597656 255.660156 470.746094 C 272.304688 468.898438 288.484375 481.382812 294.957031 496.636719 C 300.964844 512.816406 299.578125 530.386719 294.03125 546.105469 Z M 294.03125 546.105469 " fill-opacity="1" fill-rule="nonzero"/></g><g clip-path="url(#55b6e50b19)"><path fill="#0097b2" d="M 281.085938 553.5 C 281.085938 553.964844 280.625 554.425781 280.625 554.425781 C 276.464844 565.523438 270.914062 575.691406 263.980469 585.402344 L 0 585.402344 L 0 382.90625 C 0 382.90625 0.460938 382.90625 0.460938 382.445312 C 11.09375 375.972656 21.730469 369.964844 32.824219 364.878906 C 55.015625 354.707031 79.054688 347.773438 103.097656 344.074219 C 106.332031 343.613281 109.570312 343.148438 112.34375 342.6875 C 123.898438 341.300781 135.457031 340.835938 147.015625 343.148438 C 158.113281 345.921875 169.207031 351.933594 175.21875 361.640625 C 184 375.511719 181.6875 393.542969 177.066406 409.261719 C 172.441406 424.980469 165.507812 440.699219 165.507812 456.878906 C 165.507812 473.523438 175.21875 491.550781 191.398438 493.863281 C 208.964844 496.636719 224.683594 480.457031 242.253906 478.605469 C 258.894531 476.757812 275.078125 489.238281 281.550781 504.496094 C 288.023438 520.214844 286.632812 537.78125 281.085938 553.5 Z M 281.085938 553.5 " fill-opacity="1" fill-rule="nonzero"/></g><g clip-path="url(#1be502ae85)"><path fill="#5271ff" d="M 274.613281 585.402344 L 0 585.402344 L 0 215.550781 L 10.632812 215.550781 C 141.929688 367.1875 162.273438 424.515625 147.015625 443.933594 C 130.371094 465.664062 70.734375 442.085938 63.335938 459.191406 C 55.941406 477.21875 113.265625 527.613281 181.6875 557.199219 C 216.363281 572.457031 248.261719 579.855469 274.613281 585.402344 Z M 274.613281 585.402344 " fill-opacity="1" fill-rule="nonzero"/></g><g clip-path="url(#e938c0cfe2)"><path fill="#38b6ff" d="M 294.03125 585.402344 L 0 585.402344 L 0 215.550781 C 49.46875 271.027344 82.292969 312.636719 103.558594 344.074219 C 136.382812 393.078125 140.542969 416.195312 132.222656 426.828125 C 118.351562 444.859375 68.886719 424.980469 62.875 439.308594 C 56.863281 454.566406 104.484375 495.710938 160.886719 520.675781 C 213.125 543.792969 257.507812 545.640625 281.085938 553.5 C 290.332031 556.738281 296.34375 560.898438 298.191406 567.832031 C 299.578125 573.84375 297.730469 579.855469 294.03125 585.402344 Z M 294.03125 585.402344 " fill-opacity="1" fill-rule="nonzero"/></g><g clip-path="url(#baf84fa5e3)"><path fill="#ffffff" d="M 53.628906 375.046875 C 53.628906 374.585938 54.089844 374.125 54.554688 374.125 C 55.015625 374.125 55.476562 374.585938 55.476562 375.046875 C 55.476562 375.511719 55.015625 375.972656 54.554688 375.972656 C 53.628906 375.511719 53.628906 375.046875 53.628906 375.046875 Z M 70.734375 375.511719 C 71.195312 375.511719 71.660156 375.046875 71.660156 374.585938 C 71.660156 374.125 71.195312 373.660156 70.734375 373.660156 C 70.273438 373.660156 69.808594 374.125 69.808594 374.585938 C 69.808594 375.046875 70.273438 375.511719 70.734375 375.511719 Z M 86.914062 375.511719 C 87.378906 375.511719 87.839844 375.046875 87.839844 374.585938 C 87.839844 374.125 87.378906 373.660156 86.914062 373.660156 C 86.453125 373.660156 85.992188 374.125 85.992188 374.585938 C 85.992188 375.046875 86.453125 375.511719 86.914062 375.511719 Z M 103.558594 375.511719 C 104.019531 375.511719 104.484375 375.046875 104.484375 374.585938 C 104.484375 374.125 104.019531 373.660156 103.558594 373.660156 C 103.097656 373.660156 102.632812 374.125 102.632812 374.585938 C 102.632812 375.046875 103.097656 375.511719 103.558594 375.511719 Z M 119.738281 375.511719 C 120.203125 375.511719 120.664062 375.046875 120.664062 374.585938 C 120.664062 374.125 120.203125 373.660156 119.738281 373.660156 C 119.277344 373.660156 118.816406 374.125 118.816406 374.585938 C 118.816406 375.046875 119.277344 375.511719 119.738281 375.511719 Z M 136.382812 375.511719 C 136.84375 375.511719 137.308594 375.046875 137.308594 374.585938 C 137.308594 374.125 136.84375 373.660156 136.382812 373.660156 C 135.921875 373.660156 135.457031 374.125 135.457031 374.585938 C 135.457031 375.046875 135.921875 375.511719 136.382812 375.511719 Z M 54.089844 390.765625 C 54.554688 390.765625 55.015625 390.304688 55.015625 389.84375 C 55.015625 389.378906 54.554688 388.917969 54.089844 388.917969 C 53.628906 388.917969 53.167969 389.378906 53.167969 389.84375 C 53.628906 390.304688 53.628906 390.765625 54.089844 390.765625 Z M 70.734375 390.765625 C 71.195312 390.765625 71.660156 390.304688 71.660156 389.84375 C 71.660156 389.378906 71.195312 388.917969 70.734375 388.917969 C 70.273438 388.917969 69.808594 389.378906 69.808594 389.84375 C 69.808594 390.304688 70.273438 390.765625 70.734375 390.765625 Z M 86.914062 390.765625 C 87.378906 390.765625 87.839844 390.304688 87.839844 389.84375 C 87.839844 389.378906 87.378906 388.917969 86.914062 388.917969 C 86.453125 388.917969 85.992188 389.378906 85.992188 389.84375 C 86.453125 390.304688 86.453125 390.765625 86.914062 390.765625 Z M 103.558594 390.765625 C 104.019531 390.765625 104.484375 390.304688 104.484375 389.84375 C 104.484375 389.378906 104.019531 388.917969 103.558594 388.917969 C 103.097656 388.917969 102.632812 389.378906 102.632812 389.84375 C 102.632812 390.304688 103.097656 390.765625 103.558594 390.765625 Z M 119.738281 390.765625 C 120.203125 390.765625 120.664062 390.304688 120.664062 389.84375 C 120.664062 389.378906 120.203125 388.917969 119.738281 388.917969 C 119.277344 388.917969 118.816406 389.378906 118.816406 389.84375 C 119.277344 390.304688 119.277344 390.765625 119.738281 390.765625 Z M 136.382812 390.765625 C 136.84375 390.765625 137.308594 390.304688 137.308594 389.84375 C 137.308594 389.378906 136.84375 388.917969 136.382812 388.917969 C 135.921875 388.917969 135.457031 389.378906 135.457031 389.84375 C 135.457031 390.304688 135.921875 390.765625 136.382812 390.765625 Z M 54.089844 405.5625 C 54.554688 405.5625 55.015625 405.097656 55.015625 404.636719 C 55.015625 404.175781 54.554688 403.710938 54.089844 403.710938 C 53.628906 403.710938 53.167969 404.175781 53.167969 404.636719 C 53.167969 405.097656 53.628906 405.5625 54.089844 405.5625 Z M 70.734375 405.5625 C 71.195312 405.5625 71.660156 405.097656 71.660156 404.636719 C 71.660156 404.175781 71.195312 403.710938 70.734375 403.710938 C 70.273438 403.710938 69.808594 404.175781 69.808594 404.636719 C 69.808594 405.097656 70.273438 405.5625 70.734375 405.5625 Z M 86.914062 405.5625 C 87.378906 405.5625 87.839844 405.097656 87.839844 404.636719 C 87.839844 404.175781 87.378906 403.710938 86.914062 403.710938 C 86.453125 403.710938 85.992188 404.175781 85.992188 404.636719 C 85.992188 405.097656 86.453125 405.5625 86.914062 405.5625 Z M 103.558594 405.5625 C 104.019531 405.5625 104.484375 405.097656 104.484375 404.636719 C 104.484375 404.175781 104.019531 403.710938 103.558594 403.710938 C 103.097656 403.710938 102.632812 404.175781 102.632812 404.636719 C 102.632812 405.097656 103.097656 405.5625 103.558594 405.5625 Z M 119.738281 405.5625 C 120.203125 405.5625 120.664062 405.097656 120.664062 404.636719 C 120.664062 404.175781 120.203125 403.710938 119.738281 403.710938 C 119.277344 403.710938 118.816406 404.175781 118.816406 404.636719 C 118.816406 405.097656 119.277344 405.5625 119.738281 405.5625 Z M 136.382812 405.5625 C 136.84375 405.5625 137.308594 405.097656 137.308594 404.636719 C 137.308594 404.175781 136.84375 403.710938 136.382812 403.710938 C 135.921875 403.710938 135.457031 404.175781 135.457031 404.636719 C 135.457031 405.097656 135.921875 405.5625 136.382812 405.5625 Z M 54.089844 420.816406 C 54.554688 420.816406 55.015625 420.355469 55.015625 419.894531 C 55.015625 419.429688 54.554688 418.96875 54.089844 418.96875 C 53.628906 418.96875 53.167969 419.429688 53.167969 419.894531 C 53.628906 420.355469 53.628906 420.816406 54.089844 420.816406 Z M 70.734375 420.816406 C 71.195312 420.816406 71.660156 420.355469 71.660156 419.894531 C 71.660156 419.429688 71.195312 418.96875 70.734375 418.96875 C 70.273438 418.96875 69.808594 419.429688 69.808594 419.894531 C 69.808594 420.355469 70.273438 420.816406 70.734375 420.816406 Z M 86.914062 420.816406 C 87.378906 420.816406 87.839844 420.355469 87.839844 419.894531 C 87.839844 419.429688 87.378906 418.96875 86.914062 418.96875 C 86.453125 418.96875 85.992188 419.429688 85.992188 419.894531 C 86.453125 420.355469 86.453125 420.816406 86.914062 420.816406 Z M 103.558594 420.816406 C 104.019531 420.816406 104.484375 420.355469 104.484375 419.894531 C 104.484375 419.429688 104.019531 418.96875 103.558594 418.96875 C 103.097656 418.96875 102.632812 419.429688 102.632812 419.894531 C 102.632812 420.355469 103.097656 420.816406 103.558594 420.816406 Z M 119.738281 420.816406 C 120.203125 420.816406 120.664062 420.355469 120.664062 419.894531 C 120.664062 419.429688 120.203125 418.96875 119.738281 418.96875 C 119.277344 418.96875 118.816406 419.429688 118.816406 419.894531 C 119.277344 420.355469 119.277344 420.816406 119.738281 420.816406 Z M 136.382812 420.816406 C 136.84375 420.816406 137.308594 420.355469 137.308594 419.894531 C 137.308594 419.429688 136.84375 418.96875 136.382812 418.96875 C 135.921875 418.96875 135.457031 419.429688 135.457031 419.894531 C 135.457031 420.355469 135.921875 420.816406 136.382812 420.816406 Z M 54.089844 435.613281 C 54.554688 435.613281 55.015625 435.148438 55.015625 434.6875 C 55.015625 434.226562 54.554688 433.761719 54.089844 433.761719 C 53.628906 433.761719 53.167969 434.226562 53.167969 434.6875 C 53.167969 435.148438 53.628906 435.613281 54.089844 435.613281 Z M 70.734375 435.613281 C 71.195312 435.613281 71.660156 435.148438 71.660156 434.6875 C 71.660156 434.226562 71.195312 433.761719 70.734375 433.761719 C 70.273438 433.761719 69.808594 434.226562 69.808594 434.6875 C 69.808594 435.148438 70.273438 435.613281 70.734375 435.613281 Z M 86.914062 435.613281 C 87.378906 435.613281 87.839844 435.148438 87.839844 434.6875 C 87.839844 434.226562 87.378906 433.761719 86.914062 433.761719 C 86.453125 433.761719 85.992188 434.226562 85.992188 434.6875 C 85.992188 435.148438 86.453125 435.613281 86.914062 435.613281 Z M 103.558594 435.613281 C 104.019531 435.613281 104.484375 435.148438 104.484375 434.6875 C 104.484375 434.226562 104.019531 433.761719 103.558594 433.761719 C 103.097656 433.761719 102.632812 434.226562 102.632812 434.6875 C 102.632812 435.148438 103.097656 435.613281 103.558594 435.613281 Z M 119.738281 435.613281 C 120.203125 435.613281 120.664062 435.148438 120.664062 434.6875 C 120.664062 434.226562 120.203125 433.761719 119.738281 433.761719 C 119.277344 433.761719 118.816406 434.226562 118.816406 434.6875 C 118.816406 435.148438 119.277344 435.613281 119.738281 435.613281 Z M 136.382812 435.613281 C 136.84375 435.613281 137.308594 435.148438 137.308594 434.6875 C 137.308594 434.226562 136.84375 433.761719 136.382812 433.761719 C 135.921875 433.761719 135.457031 434.226562 135.457031 434.6875 C 135.457031 435.148438 135.921875 435.613281 136.382812 435.613281 Z M 54.089844 450.867188 C 54.554688 450.867188 55.015625 450.40625 55.015625 449.945312 C 55.015625 449.480469 54.554688 449.019531 54.089844 449.019531 C 53.628906 449.019531 53.167969 449.480469 53.167969 449.945312 C 53.167969 450.40625 53.628906 450.867188 54.089844 450.867188 Z M 70.734375 450.867188 C 71.195312 450.867188 71.660156 450.40625 71.660156 449.945312 C 71.660156 449.480469 71.195312 449.019531 70.734375 449.019531 C 70.273438 449.019531 69.808594 449.480469 69.808594 449.945312 C 69.808594 450.40625 70.273438 450.867188 70.734375 450.867188 Z M 86.914062 450.867188 C 87.378906 450.867188 87.839844 450.40625 87.839844 449.945312 C 87.839844 449.480469 87.378906 449.019531 86.914062 449.019531 C 86.453125 449.019531 85.992188 449.480469 85.992188 449.945312 C 85.992188 450.40625 86.453125 450.867188 86.914062 450.867188 Z M 103.558594 450.867188 C 104.019531 450.867188 104.484375 450.40625 104.484375 449.945312 C 104.484375 449.480469 104.019531 449.019531 103.558594 449.019531 C 103.097656 449.019531 102.632812 449.480469 102.632812 449.945312 C 102.632812 450.40625 103.097656 450.867188 103.558594 450.867188 Z M 120.664062 449.945312 C 120.664062 449.480469 120.203125 449.019531 119.738281 449.019531 C 119.277344 449.019531 118.816406 449.480469 118.816406 449.945312 C 118.816406 450.40625 119.277344 450.867188 119.738281 450.867188 C 120.203125 450.867188 120.664062 450.40625 120.664062 449.945312 Z M 136.382812 450.867188 C 136.84375 450.867188 137.308594 450.40625 137.308594 449.945312 C 137.308594 449.480469 136.84375 449.019531 136.382812 449.019531 C 135.921875 449.019531 135.457031 449.480469 135.457031 449.945312 C 135.457031 450.40625 135.921875 450.867188 136.382812 450.867188 Z M 0 480.917969 L 0 519.753906 C 36.523438 519.289062 66.109375 548.878906 66.109375 585.402344 L 104.945312 585.402344 C 104.484375 527.613281 57.789062 480.917969 0 480.917969 Z M 177.992188 558.585938 C 163.195312 558.585938 151.175781 570.609375 151.175781 585.402344 L 153.488281 585.402344 C 153.488281 571.996094 164.582031 560.898438 177.992188 560.898438 C 191.398438 560.898438 202.492188 571.996094 202.492188 585.402344 L 204.804688 585.402344 C 204.804688 570.609375 192.785156 558.585938 177.992188 558.585938 Z M 177.992188 551.191406 C 159.035156 551.191406 143.78125 566.445312 143.78125 585.402344 L 146.089844 585.402344 C 146.089844 567.832031 160.421875 553.5 177.992188 553.5 C 195.558594 553.5 209.890625 567.832031 209.890625 585.402344 L 212.203125 585.402344 C 212.203125 566.445312 196.484375 551.191406 177.992188 551.191406 Z M 177.992188 536.394531 C 151.175781 536.394531 128.984375 558.125 128.984375 585.402344 L 131.296875 585.402344 C 131.296875 559.511719 152.101562 538.707031 177.992188 538.707031 C 203.878906 538.707031 224.683594 559.511719 224.683594 585.402344 L 226.996094 585.402344 C 226.535156 558.585938 204.804688 536.394531 177.992188 536.394531 Z M 177.992188 543.792969 C 154.875 543.792969 136.382812 562.285156 136.382812 585.402344 L 138.695312 585.402344 C 138.695312 563.671875 156.261719 546.105469 177.992188 546.105469 C 199.71875 546.105469 217.289062 563.671875 217.289062 585.402344 L 219.597656 585.402344 C 219.136719 562.285156 200.644531 543.792969 177.992188 543.792969 Z M 177.992188 573.382812 C 171.054688 573.382812 165.972656 578.929688 165.972656 585.402344 L 167.820312 585.402344 C 167.820312 579.855469 172.441406 575.691406 177.527344 575.691406 C 183.078125 575.691406 187.238281 580.316406 187.238281 585.402344 L 189.546875 585.402344 C 190.011719 578.46875 184.464844 573.382812 177.992188 573.382812 Z M 177.992188 565.984375 C 167.359375 565.984375 158.574219 574.769531 158.574219 585.402344 L 160.886719 585.402344 C 160.886719 576.15625 168.746094 568.296875 177.992188 568.296875 C 187.238281 568.296875 195.097656 576.15625 195.097656 585.402344 L 197.40625 585.402344 C 197.40625 574.769531 188.625 565.984375 177.992188 565.984375 Z M 136.84375 520.675781 L 120.203125 504.035156 L 131.296875 501.261719 L 127.136719 497.097656 L 149.789062 491.089844 L 143.78125 513.742188 L 139.617188 509.582031 Z M 131.757812 498.023438 L 134.070312 500.335938 L 142.855469 498.023438 L 140.542969 506.808594 L 142.855469 509.121094 L 147.015625 493.863281 Z M 135.457031 516.054688 L 139.617188 500.796875 L 124.363281 504.957031 Z M 135.457031 516.054688 " fill-opacity="1" fill-rule="nonzero"/></g><path fill="#38b6ff" d="M 729.964844 39.71875 C 729.964844 39.253906 729.964844 38.792969 730.429688 38.792969 C 734.128906 27.699219 740.136719 17.527344 747.070312 7.820312 L 1011.054688 7.820312 L 1011.054688 210.773438 C 1011.054688 210.773438 1010.589844 210.773438 1010.589844 211.238281 C 1000.421875 217.707031 989.324219 223.71875 978.230469 228.804688 C 955.574219 238.976562 931.996094 245.910156 907.496094 249.609375 C 904.257812 250.070312 901.023438 250.535156 898.25 250.996094 C 886.691406 252.382812 875.132812 252.84375 863.574219 250.535156 C 852.480469 247.757812 841.382812 241.75 835.375 232.039062 C 826.589844 218.171875 828.902344 200.140625 833.523438 184.421875 C 838.148438 168.703125 845.082031 152.984375 845.082031 136.804688 C 845.082031 120.621094 835.375 102.128906 819.191406 99.820312 C 801.625 97.046875 785.90625 113.226562 768.339844 115.074219 C 751.695312 116.925781 735.515625 104.441406 729.042969 89.1875 C 723.03125 73.003906 724.417969 55.4375 729.964844 39.71875 Z M 729.964844 39.71875 " fill-opacity="1" fill-rule="nonzero"/><g clip-path="url(#352bb46942)"><path fill="#0097b2" d="M 742.910156 32.320312 C 742.910156 31.859375 743.375 31.394531 743.375 31.394531 C 747.535156 20.300781 753.082031 10.128906 760.015625 0.421875 L 1024 0.421875 L 1024 202.914062 C 1024 202.914062 1023.535156 202.914062 1023.535156 203.378906 C 1012.902344 209.851562 1002.269531 215.859375 991.171875 220.945312 C 968.984375 231.117188 944.941406 238.050781 920.902344 241.75 C 917.664062 242.210938 914.429688 242.675781 911.65625 243.136719 C 900.097656 244.523438 888.539062 244.984375 876.980469 242.675781 C 865.886719 239.898438 854.792969 233.890625 848.78125 224.179688 C 839.996094 210.3125 842.308594 192.28125 846.933594 176.5625 C 851.554688 160.84375 858.488281 145.125 858.488281 128.945312 C 858.488281 112.300781 848.78125 94.269531 832.601562 91.960938 C 815.03125 89.1875 799.3125 105.367188 781.746094 107.214844 C 765.101562 109.066406 748.921875 96.582031 742.449219 81.328125 C 735.976562 65.609375 737.363281 48.039062 742.910156 32.320312 Z M 742.910156 32.320312 " fill-opacity="1" fill-rule="nonzero"/></g><g clip-path="url(#b6d1069086)"><path fill="#1f405f" d="M 749.382812 0.421875 L 1024 0.421875 L 1024 370.273438 L 1013.363281 370.273438 C 882.066406 218.632812 861.726562 161.308594 876.980469 141.890625 C 893.625 120.160156 953.265625 143.738281 960.660156 126.632812 C 968.058594 108.601562 910.730469 58.210938 842.308594 28.621094 C 807.636719 13.367188 775.734375 5.96875 749.382812 0.421875 Z M 749.382812 0.421875 " fill-opacity="1" fill-rule="nonzero"/></g><g clip-path="url(#aae4ba972c)"><path fill="#004aad" d="M 729.964844 0.421875 L 1024 0.421875 L 1024 370.273438 C 974.53125 314.792969 941.707031 273.1875 920.441406 241.75 C 887.617188 192.742188 883.453125 169.628906 891.777344 158.996094 C 905.644531 140.964844 955.113281 160.84375 961.125 146.511719 C 967.132812 131.257812 919.515625 90.109375 863.113281 65.144531 C 810.871094 42.03125 766.488281 40.179688 742.910156 32.320312 C 733.664062 29.085938 727.65625 24.925781 725.804688 17.988281 C 724.417969 11.980469 726.269531 5.96875 729.964844 0.421875 Z M 729.964844 0.421875 " fill-opacity="1" fill-rule="nonzero"/></g><g clip-path="url(#3abb1d86be)"><path fill="#ffffff" d="M 970.371094 210.773438 C 970.371094 211.238281 969.90625 211.699219 969.445312 211.699219 C 968.984375 211.699219 968.519531 211.238281 968.519531 210.773438 C 968.519531 210.3125 968.984375 209.851562 969.445312 209.851562 C 970.371094 210.3125 970.371094 210.773438 970.371094 210.773438 Z M 953.265625 210.3125 C 952.800781 210.3125 952.339844 210.773438 952.339844 211.238281 C 952.339844 211.699219 952.800781 212.160156 953.265625 212.160156 C 953.726562 212.160156 954.1875 211.699219 954.1875 211.238281 C 954.1875 210.773438 953.726562 210.3125 953.265625 210.3125 Z M 937.082031 210.3125 C 936.621094 210.3125 936.160156 210.773438 936.160156 211.238281 C 936.160156 211.699219 936.621094 212.160156 937.082031 212.160156 C 937.546875 212.160156 938.007812 211.699219 938.007812 211.238281 C 938.007812 210.773438 937.546875 210.3125 937.082031 210.3125 Z M 920.441406 210.3125 C 919.976562 210.3125 919.515625 210.773438 919.515625 211.238281 C 919.515625 211.699219 919.976562 212.160156 920.441406 212.160156 C 920.902344 212.160156 921.363281 211.699219 921.363281 211.238281 C 921.363281 210.773438 920.902344 210.3125 920.441406 210.3125 Z M 904.257812 210.3125 C 903.796875 210.3125 903.335938 210.773438 903.335938 211.238281 C 903.335938 211.699219 903.796875 212.160156 904.257812 212.160156 C 904.722656 212.160156 905.183594 211.699219 905.183594 211.238281 C 905.183594 210.773438 904.722656 210.3125 904.257812 210.3125 Z M 887.617188 210.3125 C 887.152344 210.3125 886.691406 210.773438 886.691406 211.238281 C 886.691406 211.699219 887.152344 212.160156 887.617188 212.160156 C 888.078125 212.160156 888.539062 211.699219 888.539062 211.238281 C 888.539062 210.773438 888.078125 210.3125 887.617188 210.3125 Z M 969.90625 195.054688 C 969.445312 195.054688 968.984375 195.519531 968.984375 195.980469 C 968.984375 196.441406 969.445312 196.90625 969.90625 196.90625 C 970.371094 196.90625 970.832031 196.441406 970.832031 195.980469 C 970.371094 195.519531 970.371094 195.054688 969.90625 195.054688 Z M 953.265625 195.054688 C 952.800781 195.054688 952.339844 195.519531 952.339844 195.980469 C 952.339844 196.441406 952.800781 196.90625 953.265625 196.90625 C 953.726562 196.90625 954.1875 196.441406 954.1875 195.980469 C 954.1875 195.519531 953.726562 195.054688 953.265625 195.054688 Z M 937.082031 195.054688 C 936.621094 195.054688 936.160156 195.519531 936.160156 195.980469 C 936.160156 196.441406 936.621094 196.90625 937.082031 196.90625 C 937.546875 196.90625 938.007812 196.441406 938.007812 195.980469 C 937.546875 195.519531 937.546875 195.054688 937.082031 195.054688 Z M 920.441406 195.054688 C 919.976562 195.054688 919.515625 195.519531 919.515625 195.980469 C 919.515625 196.441406 919.976562 196.90625 920.441406 196.90625 C 920.902344 196.90625 921.363281 196.441406 921.363281 195.980469 C 921.363281 195.519531 920.902344 195.054688 920.441406 195.054688 Z M 904.257812 195.054688 C 903.796875 195.054688 903.335938 195.519531 903.335938 195.980469 C 903.335938 196.441406 903.796875 196.90625 904.257812 196.90625 C 904.722656 196.90625 905.183594 196.441406 905.183594 195.980469 C 904.722656 195.519531 904.722656 195.054688 904.257812 195.054688 Z M 887.617188 195.054688 C 887.152344 195.054688 886.691406 195.519531 886.691406 195.980469 C 886.691406 196.441406 887.152344 196.90625 887.617188 196.90625 C 888.078125 196.90625 888.539062 196.441406 888.539062 195.980469 C 888.539062 195.519531 888.078125 195.054688 887.617188 195.054688 Z M 969.90625 180.261719 C 969.445312 180.261719 968.984375 180.722656 968.984375 181.1875 C 968.984375 181.648438 969.445312 182.109375 969.90625 182.109375 C 970.371094 182.109375 970.832031 181.648438 970.832031 181.1875 C 970.832031 180.722656 970.371094 180.261719 969.90625 180.261719 Z M 953.265625 180.261719 C 952.800781 180.261719 952.339844 180.722656 952.339844 181.1875 C 952.339844 181.648438 952.800781 182.109375 953.265625 182.109375 C 953.726562 182.109375 954.1875 181.648438 954.1875 181.1875 C 954.1875 180.722656 953.726562 180.261719 953.265625 180.261719 Z M 937.082031 180.261719 C 936.621094 180.261719 936.160156 180.722656 936.160156 181.1875 C 936.160156 181.648438 936.621094 182.109375 937.082031 182.109375 C 937.546875 182.109375 938.007812 181.648438 938.007812 181.1875 C 938.007812 180.722656 937.546875 180.261719 937.082031 180.261719 Z M 920.441406 180.261719 C 919.976562 180.261719 919.515625 180.722656 919.515625 181.1875 C 919.515625 181.648438 919.976562 182.109375 920.441406 182.109375 C 920.902344 182.109375 921.363281 181.648438 921.363281 181.1875 C 921.363281 180.722656 920.902344 180.261719 920.441406 180.261719 Z M 904.257812 180.261719 C 903.796875 180.261719 903.335938 180.722656 903.335938 181.1875 C 903.335938 181.648438 903.796875 182.109375 904.257812 182.109375 C 904.722656 182.109375 905.183594 181.648438 905.183594 181.1875 C 905.183594 180.722656 904.722656 180.261719 904.257812 180.261719 Z M 887.617188 180.261719 C 887.152344 180.261719 886.691406 180.722656 886.691406 181.1875 C 886.691406 181.648438 887.152344 182.109375 887.617188 182.109375 C 888.078125 182.109375 888.539062 181.648438 888.539062 181.1875 C 888.539062 180.722656 888.078125 180.261719 887.617188 180.261719 Z M 969.90625 165.003906 C 969.445312 165.003906 968.984375 165.46875 968.984375 165.929688 C 968.984375 166.390625 969.445312 166.855469 969.90625 166.855469 C 970.371094 166.855469 970.832031 166.390625 970.832031 165.929688 C 970.371094 165.46875 970.371094 165.003906 969.90625 165.003906 Z M 953.265625 165.003906 C 952.800781 165.003906 952.339844 165.46875 952.339844 165.929688 C 952.339844 166.390625 952.800781 166.855469 953.265625 166.855469 C 953.726562 166.855469 954.1875 166.390625 954.1875 165.929688 C 954.1875 165.46875 953.726562 165.003906 953.265625 165.003906 Z M 937.082031 165.003906 C 936.621094 165.003906 936.160156 165.46875 936.160156 165.929688 C 936.160156 166.390625 936.621094 166.855469 937.082031 166.855469 C 937.546875 166.855469 938.007812 166.390625 938.007812 165.929688 C 937.546875 165.46875 937.546875 165.003906 937.082031 165.003906 Z M 920.441406 165.003906 C 919.976562 165.003906 919.515625 165.46875 919.515625 165.929688 C 919.515625 166.390625 919.976562 166.855469 920.441406 166.855469 C 920.902344 166.855469 921.363281 166.390625 921.363281 165.929688 C 921.363281 165.46875 920.902344 165.003906 920.441406 165.003906 Z M 904.257812 165.003906 C 903.796875 165.003906 903.335938 165.46875 903.335938 165.929688 C 903.335938 166.390625 903.796875 166.855469 904.257812 166.855469 C 904.722656 166.855469 905.183594 166.390625 905.183594 165.929688 C 904.722656 165.46875 904.722656 165.003906 904.257812 165.003906 Z M 887.617188 165.003906 C 887.152344 165.003906 886.691406 165.46875 886.691406 165.929688 C 886.691406 166.390625 887.152344 166.855469 887.617188 166.855469 C 888.078125 166.855469 888.539062 166.390625 888.539062 165.929688 C 888.539062 165.46875 888.078125 165.003906 887.617188 165.003906 Z M 969.90625 150.210938 C 969.445312 150.210938 968.984375 150.671875 968.984375 151.136719 C 968.984375 151.597656 969.445312 152.058594 969.90625 152.058594 C 970.371094 152.058594 970.832031 151.597656 970.832031 151.136719 C 970.832031 150.671875 970.371094 150.210938 969.90625 150.210938 Z M 953.265625 150.210938 C 952.800781 150.210938 952.339844 150.671875 952.339844 151.136719 C 952.339844 151.597656 952.800781 152.058594 953.265625 152.058594 C 953.726562 152.058594 954.1875 151.597656 954.1875 151.136719 C 954.1875 150.671875 953.726562 150.210938 953.265625 150.210938 Z M 937.082031 150.210938 C 936.621094 150.210938 936.160156 150.671875 936.160156 151.136719 C 936.160156 151.597656 936.621094 152.058594 937.082031 152.058594 C 937.546875 152.058594 938.007812 151.597656 938.007812 151.136719 C 938.007812 150.671875 937.546875 150.210938 937.082031 150.210938 Z M 920.441406 150.210938 C 919.976562 150.210938 919.515625 150.671875 919.515625 151.136719 C 919.515625 151.597656 919.976562 152.058594 920.441406 152.058594 C 920.902344 152.058594 921.363281 151.597656 921.363281 151.136719 C 921.363281 150.671875 920.902344 150.210938 920.441406 150.210938 Z M 904.257812 150.210938 C 903.796875 150.210938 903.335938 150.671875 903.335938 151.136719 C 903.335938 151.597656 903.796875 152.058594 904.257812 152.058594 C 904.722656 152.058594 905.183594 151.597656 905.183594 151.136719 C 905.183594 150.671875 904.722656 150.210938 904.257812 150.210938 Z M 887.617188 150.210938 C 887.152344 150.210938 886.691406 150.671875 886.691406 151.136719 C 886.691406 151.597656 887.152344 152.058594 887.617188 152.058594 C 888.078125 152.058594 888.539062 151.597656 888.539062 151.136719 C 888.539062 150.671875 888.078125 150.210938 887.617188 150.210938 Z M 969.90625 134.953125 C 969.445312 134.953125 968.984375 135.417969 968.984375 135.878906 C 968.984375 136.339844 969.445312 136.804688 969.90625 136.804688 C 970.371094 136.804688 970.832031 136.339844 970.832031 135.878906 C 970.832031 135.417969 970.371094 134.953125 969.90625 134.953125 Z M 953.265625 134.953125 C 952.800781 134.953125 952.339844 135.417969 952.339844 135.878906 C 952.339844 136.339844 952.800781 136.804688 953.265625 136.804688 C 953.726562 136.804688 954.1875 136.339844 954.1875 135.878906 C 954.1875 135.417969 953.726562 134.953125 953.265625 134.953125 Z M 937.082031 134.953125 C 936.621094 134.953125 936.160156 135.417969 936.160156 135.878906 C 936.160156 136.339844 936.621094 136.804688 937.082031 136.804688 C 937.546875 136.804688 938.007812 136.339844 938.007812 135.878906 C 938.007812 135.417969 937.546875 134.953125 937.082031 134.953125 Z M 920.441406 134.953125 C 919.976562 134.953125 919.515625 135.417969 919.515625 135.878906 C 919.515625 136.339844 919.976562 136.804688 920.441406 136.804688 C 920.902344 136.804688 921.363281 136.339844 921.363281 135.878906 C 921.363281 135.417969 920.902344 134.953125 920.441406 134.953125 Z M 903.335938 135.878906 C 903.335938 136.339844 903.796875 136.804688 904.257812 136.804688 C 904.722656 136.804688 905.183594 136.339844 905.183594 135.878906 C 905.183594 135.417969 904.722656 134.953125 904.257812 134.953125 C 903.796875 134.953125 903.335938 135.417969 903.335938 135.878906 Z M 887.617188 134.953125 C 887.152344 134.953125 886.691406 135.417969 886.691406 135.878906 C 886.691406 136.339844 887.152344 136.804688 887.617188 136.804688 C 888.078125 136.804688 888.539062 136.339844 888.539062 135.878906 C 888.539062 135.417969 888.078125 134.953125 887.617188 134.953125 Z M 1024 104.90625 L 1024 66.070312 C 987.476562 66.53125 957.886719 36.945312 957.886719 0.421875 L 919.054688 0.421875 C 919.515625 58.210938 966.207031 104.90625 1024 104.90625 Z M 846.007812 27.234375 C 860.800781 27.234375 872.820312 15.214844 872.820312 0.421875 L 870.511719 0.421875 C 870.511719 13.828125 859.414062 24.925781 846.007812 24.925781 C 832.601562 24.925781 821.503906 13.828125 821.503906 0.421875 L 819.191406 0.421875 C 819.191406 15.214844 831.214844 27.234375 846.007812 27.234375 Z M 846.007812 34.632812 C 864.960938 34.632812 880.21875 19.375 880.21875 0.421875 L 877.90625 0.421875 C 877.90625 17.988281 863.574219 32.320312 846.007812 32.320312 C 828.4375 32.320312 814.109375 17.988281 814.109375 0.421875 L 811.796875 0.421875 C 811.796875 19.375 827.515625 34.632812 846.007812 34.632812 Z M 846.007812 49.425781 C 872.820312 49.425781 895.011719 27.699219 895.011719 0.421875 L 892.699219 0.421875 C 892.699219 26.3125 871.898438 47.113281 846.007812 47.113281 C 820.117188 47.113281 799.3125 26.3125 799.3125 0.421875 L 797.003906 0.421875 C 797.464844 27.234375 819.191406 49.425781 846.007812 49.425781 Z M 846.007812 42.03125 C 869.121094 42.03125 887.617188 23.535156 887.617188 0.421875 L 885.304688 0.421875 C 885.304688 22.148438 867.734375 39.71875 846.007812 39.71875 C 824.277344 39.71875 806.710938 22.148438 806.710938 0.421875 L 804.398438 0.421875 C 804.859375 23.535156 823.355469 42.03125 846.007812 42.03125 Z M 846.007812 12.441406 C 852.941406 12.441406 858.027344 6.894531 858.027344 0.421875 L 856.179688 0.421875 C 856.179688 5.96875 851.554688 10.128906 846.46875 10.128906 C 840.921875 10.128906 836.761719 5.507812 836.761719 0.421875 L 834.449219 0.421875 C 833.988281 7.355469 839.535156 12.441406 846.007812 12.441406 Z M 846.007812 19.839844 C 856.640625 19.839844 865.425781 11.054688 865.425781 0.421875 L 863.113281 0.421875 C 863.113281 9.667969 855.253906 17.527344 846.007812 17.527344 C 836.761719 17.527344 828.902344 9.667969 828.902344 0.421875 L 826.589844 0.421875 C 826.589844 11.054688 835.375 19.839844 846.007812 19.839844 Z M 887.152344 65.144531 L 903.796875 81.789062 L 892.699219 84.5625 L 896.863281 88.722656 L 874.207031 94.734375 L 880.21875 72.078125 L 884.378906 76.242188 Z M 892.238281 87.796875 L 889.925781 85.488281 L 881.144531 87.796875 L 883.453125 79.015625 L 881.144531 76.703125 L 876.980469 91.960938 Z M 888.539062 69.769531 L 884.378906 85.023438 L 899.636719 80.863281 Z M 888.539062 69.769531 " fill-opacity="1" fill-rule="nonzero"/></g></svg>